 http://img90.imageshack.us/img90/4818/dawning01.jpg

Country.......: USA
Genre.........: Drama, Horror, Thriller
Date release..: 2011 [World]
Director......: Gregg Holtgrewe
Writers.......: Gregg Holtgrewe, Matthew Wilkins
Duration......: 80 min.
More..........: http://www.imdb.com/title/tt1530660
Trailer.......:

Pilot :
Takes place at a Northern Minnesota lake cabin where a brother and sister visit their father and step-mom. As the first night unfolds with uncomfortable small-talk and tension, tragedy strikes. 

Cats :
David Coral   	 ...  	Richard
Jonas Goslow 	... 	Chris
Christine Kellogg-Darrin 	... 	Laura
Daniel Jay Salmen 	... 	The Man (as Danny Salmen)
Najarra Townsend 	... 	Aurora 

Data Technical :
!!! SAMPLE !!!
Audio.....: English
Subtitles.: None
Format                           : AVI
Format/Info                      : Audio Video Interleave
File size                        : 1.37 GiB
Duration                         : 1h 20mn
Overall bit rate                 : 2 443 Kbps
Writing application              : VirtualDubMod 1.5.4.1 (build 2178/release)
Writing library                  : VirtualDubMod build 2178/release
Video
ID                               : 0
Format                           : MPEG-4 Visual
Format profile                   : Advanced Simple@L5
Format settings, BVOP            : No
Format settings, QPel            : No
Format settings, GMC             : No warppoints
Format settings, Matrix          : Custom
Codec ID                         : XVID
Codec ID/Hint                    : XviD
Duration                         : 1h 20mn
Bit rate                         : 2 243 Kbps
Width                            : 720 pixels
Height                           : 416 pixels
Display aspect ratio             : 16:9
Frame rate                       : 29.970 fps
Color space                      : YUV
Chroma subsampling               : 4:2:0
Bit depth                        : 8 bits
Scan type                        : Progressive
Bits/(Pixel*Frame)               : 0.250
Stream size                      : 1.26 GiB (92%)
Writing library                  : XviD 63
Audio
ID                               : 1
Format                           : AC-3
Format/Info                      : Audio Coding 3
Mode extension                   : CM (complete main)
Codec ID                         : 2000
Duration                         : 1h 20mn
Bit rate mode                    : Constant
Bit rate                         : 192 Kbps
Channel(s)                       : 2 channels
Channel positions                : Front: L R
Sampling rate                    : 48.0 KHz
Bit depth                        : 16 bits
Stream size                      : 110 MiB (8%)
Alignment                        : Aligned on interleaves
Interleave, duration             : 96 ms (2.88 video frames)
Interleave, preload duration     : 96 ms

Screen : 
http://img607.imageshack.us/img607/8196/dawning2011s1.jpg 
http://img713.imageshack.us/img713/7628/dawning2011s2.jpg 
http://img607.imageshack.us/img607/2640/dawning2011s3.jpg 
http://img809.imageshack.us/img809/5425/dawning2011s4.jpg 
http://img715.imageshack.us/img715/5982/dawning2011s5.jpg